<svg width="350" height="140" viewBox="0 0 350 140" fill="none" xmlns="http://www.w3.org/2000/svg">
<path d="M0 15C0 6.71573 6.71573 0 15 0H335C343.284 0 350 6.71573 350 15V140H0V15Z" fill="#41CBD3"/>
<mask id="mask0" mask-type="alpha" maskUnits="userSpaceOnUse" x="0" y="0" width="350" height="140">
<path d="M0 15C0 6.71573 6.71573 0 15 0H335C343.284 0 350 6.71573 350 15V140H0V15Z" fill="white"/>
</mask>
<g mask="url(#mask0)">
<ellipse opacity="0.5" cx="49.4785" cy="10.8" rx="14.8" ry="14.8344" transform="rotate(90 49.4785 10.8)" fill="url(#paint0_linear)"/>
<ellipse opacity="0.5" cx="3.83435" cy="10.8" rx="14.8344" ry="14.8" transform="rotate(180 3.83435 10.8)" fill="url(#paint1_linear)"/>
<ellipse opacity="0.5" cx="140.767" cy="10.8" rx="14.8344" ry="14.8" fill="url(#paint2_linear)"/>
<ellipse opacity="0.5" cx="95.1227" cy="10.8" rx="14.8" ry="14.8344" transform="rotate(-90 95.1227 10.8)" fill="url(#paint3_linear)"/>
<ellipse opacity="0.5" cx="232.055" cy="10.8" rx="14.8" ry="14.8344" transform="rotate(90 232.055 10.8)" fill="url(#paint4_linear)"/>
<ellipse opacity="0.5" cx="186.411" cy="10.8" rx="14.8344" ry="14.8" transform="rotate(180 186.411 10.8)" fill="url(#paint5_linear)"/>
<ellipse opacity="0.5" cx="323.344" cy="10.8" rx="14.8344" ry="14.8" fill="url(#paint6_linear)"/>
<ellipse opacity="0.5" cx="277.699" cy="10.8" rx="14.8" ry="14.8344" transform="rotate(-90 277.699 10.8)" fill="url(#paint7_linear)"/>
<ellipse opacity="0.5" cx="49.4785" cy="106.431" rx="14.8" ry="14.8344" transform="rotate(90 49.4785 106.431)" fill="url(#paint8_linear)"/>
<ellipse opacity="0.5" cx="3.83435" cy="106.431" rx="14.8344" ry="14.8" transform="rotate(180 3.83435 106.431)" fill="url(#paint9_linear)"/>
<ellipse opacity="0.5" cx="140.767" cy="106.431" rx="14.8344" ry="14.8" fill="url(#paint10_linear)"/>
<ellipse opacity="0.5" cx="95.1227" cy="106.431" rx="14.8" ry="14.8344" transform="rotate(-90 95.1227 106.431)" fill="url(#paint11_linear)"/>
<ellipse opacity="0.5" cx="232.055" cy="106.431" rx="14.8" ry="14.8344" transform="rotate(90 232.055 106.431)" fill="url(#paint12_linear)"/>
<ellipse opacity="0.5" cx="186.411" cy="106.431" rx="14.8344" ry="14.8" transform="rotate(180 186.411 106.431)" fill="url(#paint13_linear)"/>
<ellipse opacity="0.5" cx="323.344" cy="106.431" rx="14.8344" ry="14.8" fill="url(#paint14_linear)"/>
<ellipse opacity="0.5" cx="277.699" cy="106.431" rx="14.8" ry="14.8344" transform="rotate(-90 277.699 106.431)" fill="url(#paint15_linear)"/>
<ellipse opacity="0.5" cx="49.4785" cy="58.6154" rx="14.8" ry="14.8344" transform="rotate(-90 49.4785 58.6154)" fill="url(#paint16_linear)"/>
<ellipse opacity="0.5" cx="3.83436" cy="58.6154" rx="14.8344" ry="14.8" fill="url(#paint17_linear)"/>
<ellipse opacity="0.5" cx="140.767" cy="58.6154" rx="14.8344" ry="14.8" fill="url(#paint18_linear)"/>
<ellipse opacity="0.5" cx="95.1227" cy="58.6154" rx="14.8" ry="14.8344" transform="rotate(90 95.1227 58.6154)" fill="url(#paint19_linear)"/>
<ellipse opacity="0.5" cx="232.055" cy="58.6154" rx="14.8" ry="14.8344" transform="rotate(-90 232.055 58.6154)" fill="url(#paint20_linear)"/>
<ellipse opacity="0.5" cx="186.411" cy="58.6154" rx="14.8344" ry="14.8" fill="url(#paint21_linear)"/>
<ellipse opacity="0.5" cx="323.344" cy="58.6154" rx="14.8344" ry="14.8" fill="url(#paint22_linear)"/>
<ellipse opacity="0.5" cx="277.699" cy="58.6154" rx="14.8" ry="14.8344" transform="rotate(90 277.699 58.6154)" fill="url(#paint23_linear)"/>
<ellipse opacity="0.5" cx="72.3006" cy="33.5692" rx="14.8" ry="14.8344" transform="rotate(90 72.3006 33.5692)" fill="url(#paint24_linear)"/>
<ellipse opacity="0.5" cx="26.6564" cy="33.5692" rx="14.8344" ry="14.8" transform="rotate(180 26.6564 33.5692)" fill="url(#paint25_linear)"/>
<ellipse opacity="0.5" cx="163.589" cy="33.5692" rx="14.8344" ry="14.8" fill="url(#paint26_linear)"/>
<ellipse opacity="0.5" cx="117.945" cy="33.5692" rx="14.8" ry="14.8344" transform="rotate(-90 117.945 33.5692)" fill="url(#paint27_linear)"/>
<ellipse opacity="0.5" cx="254.877" cy="33.5692" rx="14.8" ry="14.8344" transform="rotate(90 254.877 33.5692)" fill="url(#paint28_linear)"/>
<ellipse opacity="0.5" cx="209.233" cy="33.5692" rx="14.8344" ry="14.8" transform="rotate(180 209.233 33.5692)" fill="url(#paint29_linear)"/>
<ellipse opacity="0.5" cx="346.166" cy="33.5692" rx="14.8344" ry="14.8" fill="url(#paint30_linear)"/>
<ellipse opacity="0.5" cx="300.521" cy="33.5692" rx="14.8" ry="14.8344" transform="rotate(-90 300.521 33.5692)" fill="url(#paint31_linear)"/>
<ellipse opacity="0.5" cx="72.3006" cy="129.2" rx="14.8" ry="14.8344" transform="rotate(90 72.3006 129.2)" fill="url(#paint32_linear)"/>
<ellipse opacity="0.5" cx="26.6564" cy="129.2" rx="14.8344" ry="14.8" transform="rotate(180 26.6564 129.2)" fill="url(#paint33_linear)"/>
<ellipse opacity="0.5" cx="163.589" cy="129.2" rx="14.8344" ry="14.8" fill="url(#paint34_linear)"/>
<ellipse opacity="0.5" cx="117.945" cy="129.2" rx="14.8" ry="14.8344" transform="rotate(-90 117.945 129.2)" fill="url(#paint35_linear)"/>
<ellipse opacity="0.5" cx="254.877" cy="129.2" rx="14.8" ry="14.8344" transform="rotate(90 254.877 129.2)" fill="url(#paint36_linear)"/>
<ellipse opacity="0.5" cx="209.233" cy="129.2" rx="14.8344" ry="14.8" transform="rotate(180 209.233 129.2)" fill="url(#paint37_linear)"/>
<ellipse opacity="0.5" cx="346.166" cy="129.2" rx="14.8344" ry="14.8" fill="url(#paint38_linear)"/>
<ellipse opacity="0.5" cx="300.521" cy="129.2" rx="14.8" ry="14.8344" transform="rotate(-90 300.521 129.2)" fill="url(#paint39_linear)"/>
<ellipse opacity="0.5" cx="72.3006" cy="81.3846" rx="14.8" ry="14.8344" transform="rotate(-90 72.3006 81.3846)" fill="url(#paint40_linear)"/>
<ellipse opacity="0.5" cx="26.6564" cy="81.3846" rx="14.8344" ry="14.8" fill="url(#paint41_linear)"/>
<ellipse opacity="0.5" cx="163.589" cy="81.3846" rx="14.8344" ry="14.8" fill="url(#paint42_linear)"/>
<ellipse opacity="0.5" cx="117.945" cy="81.3846" rx="14.8" ry="14.8344" transform="rotate(90 117.945 81.3846)" fill="url(#paint43_linear)"/>
<ellipse opacity="0.5" cx="254.877" cy="81.3846" rx="14.8" ry="14.8344" transform="rotate(-90 254.877 81.3846)" fill="url(#paint44_linear)"/>
<ellipse opacity="0.5" cx="209.233" cy="81.3846" rx="14.8344" ry="14.8" fill="url(#paint45_linear)"/>
<ellipse opacity="0.5" cx="346.166" cy="81.3846" rx="14.8344" ry="14.8" fill="url(#paint46_linear)"/>
<ellipse opacity="0.5" cx="300.521" cy="81.3846" rx="14.8" ry="14.8344" transform="rotate(90 300.521 81.3846)" fill="url(#paint47_linear)"/>
</g>
<defs>
<linearGradient id="paint0_linear" x1="34.7937" y1="-3.80338" x2="34.7937" y2="25.6344" gradientUnits="userSpaceOnUse">
<stop stop-color="#0989B4" stop-opacity="0.01"/>
<stop offset="0.999399" stop-color="#53FFEE"/>
</linearGradient>
<linearGradient id="paint1_linear" x1="-10.8845" y1="-3.76956" x2="-10.8845" y2="25.6" gradientUnits="userSpaceOnUse">
<stop stop-color="#0989B4" stop-opacity="0.01"/>
<stop offset="0.999399" stop-color="#53FFEE"/>
</linearGradient>
<linearGradient id="paint2_linear" x1="126.048" y1="-3.76956" x2="126.048" y2="25.6" gradientUnits="userSpaceOnUse">
<stop stop-color="#0989B4" stop-opacity="0.01"/>
<stop offset="0.999399" stop-color="#53FFEE"/>
</linearGradient>
<linearGradient id="paint3_linear" x1="80.4379" y1="-3.80338" x2="80.4379" y2="25.6344" gradientUnits="userSpaceOnUse">
<stop stop-color="#0989B4" stop-opacity="0.01"/>
<stop offset="0.999399" stop-color="#53FFEE"/>
</linearGradient>
<linearGradient id="paint4_linear" x1="217.37" y1="-3.80338" x2="217.37" y2="25.6344" gradientUnits="userSpaceOnUse">
<stop stop-color="#0989B4" stop-opacity="0.01"/>
<stop offset="0.999399" stop-color="#53FFEE"/>
</linearGradient>
<linearGradient id="paint5_linear" x1="171.692" y1="-3.76956" x2="171.692" y2="25.6" gradientUnits="userSpaceOnUse">
<stop stop-color="#0989B4" stop-opacity="0.01"/>
<stop offset="0.999399" stop-color="#53FFEE"/>
</linearGradient>
<linearGradient id="paint6_linear" x1="308.625" y1="-3.76956" x2="308.625" y2="25.6" gradientUnits="userSpaceOnUse">
<stop stop-color="#0989B4" stop-opacity="0.01"/>
<stop offset="0.999399" stop-color="#53FFEE"/>
</linearGradient>
<linearGradient id="paint7_linear" x1="263.015" y1="-3.80338" x2="263.015" y2="25.6344" gradientUnits="userSpaceOnUse">
<stop stop-color="#0989B4" stop-opacity="0.01"/>
<stop offset="0.999399" stop-color="#53FFEE"/>
</linearGradient>
<linearGradient id="paint8_linear" x1="34.7937" y1="91.8274" x2="34.7937" y2="121.265" gradientUnits="userSpaceOnUse">
<stop stop-color="#0989B4" stop-opacity="0.01"/>
<stop offset="0.999399" stop-color="#53FFEE"/>
</linearGradient>
<linearGradient id="paint9_linear" x1="-10.8845" y1="91.8612" x2="-10.8845" y2="121.231" gradientUnits="userSpaceOnUse">
<stop stop-color="#0989B4" stop-opacity="0.01"/>
<stop offset="0.999399" stop-color="#53FFEE"/>
</linearGradient>
<linearGradient id="paint10_linear" x1="126.048" y1="91.8612" x2="126.048" y2="121.231" gradientUnits="userSpaceOnUse">
<stop stop-color="#0989B4" stop-opacity="0.01"/>
<stop offset="0.999399" stop-color="#53FFEE"/>
</linearGradient>
<linearGradient id="paint11_linear" x1="80.4379" y1="91.8274" x2="80.4379" y2="121.265" gradientUnits="userSpaceOnUse">
<stop stop-color="#0989B4" stop-opacity="0.01"/>
<stop offset="0.999399" stop-color="#53FFEE"/>
</linearGradient>
<linearGradient id="paint12_linear" x1="217.37" y1="91.8274" x2="217.37" y2="121.265" gradientUnits="userSpaceOnUse">
<stop stop-color="#0989B4" stop-opacity="0.01"/>
<stop offset="0.999399" stop-color="#53FFEE"/>
</linearGradient>
<linearGradient id="paint13_linear" x1="171.692" y1="91.8612" x2="171.692" y2="121.231" gradientUnits="userSpaceOnUse">
<stop stop-color="#0989B4" stop-opacity="0.01"/>
<stop offset="0.999399" stop-color="#53FFEE"/>
</linearGradient>
<linearGradient id="paint14_linear" x1="308.625" y1="91.8612" x2="308.625" y2="121.231" gradientUnits="userSpaceOnUse">
<stop stop-color="#0989B4" stop-opacity="0.01"/>
<stop offset="0.999399" stop-color="#53FFEE"/>
</linearGradient>
<linearGradient id="paint15_linear" x1="263.015" y1="91.8274" x2="263.015" y2="121.265" gradientUnits="userSpaceOnUse">
<stop stop-color="#0989B4" stop-opacity="0.01"/>
<stop offset="0.999399" stop-color="#53FFEE"/>
</linearGradient>
<linearGradient id="paint16_linear" x1="34.7937" y1="44.012" x2="34.7937" y2="73.4497" gradientUnits="userSpaceOnUse">
<stop stop-color="#0989B4" stop-opacity="0.01"/>
<stop offset="0.999399" stop-color="#53FFEE"/>
</linearGradient>
<linearGradient id="paint17_linear" x1="-10.8845" y1="44.0458" x2="-10.8845" y2="73.4154" gradientUnits="userSpaceOnUse">
<stop stop-color="#0989B4" stop-opacity="0.01"/>
<stop offset="0.999399" stop-color="#53FFEE"/>
</linearGradient>
<linearGradient id="paint18_linear" x1="126.048" y1="44.0458" x2="126.048" y2="73.4154" gradientUnits="userSpaceOnUse">
<stop stop-color="#0989B4" stop-opacity="0.01"/>
<stop offset="0.999399" stop-color="#53FFEE"/>
</linearGradient>
<linearGradient id="paint19_linear" x1="80.4379" y1="44.012" x2="80.4379" y2="73.4497" gradientUnits="userSpaceOnUse">
<stop stop-color="#0989B4" stop-opacity="0.01"/>
<stop offset="0.999399" stop-color="#53FFEE"/>
</linearGradient>
<linearGradient id="paint20_linear" x1="217.37" y1="44.012" x2="217.37" y2="73.4497" gradientUnits="userSpaceOnUse">
<stop stop-color="#0989B4" stop-opacity="0.01"/>
<stop offset="0.999399" stop-color="#53FFEE"/>
</linearGradient>
<linearGradient id="paint21_linear" x1="171.692" y1="44.0458" x2="171.692" y2="73.4154" gradientUnits="userSpaceOnUse">
<stop stop-color="#0989B4" stop-opacity="0.01"/>
<stop offset="0.999399" stop-color="#53FFEE"/>
</linearGradient>
<linearGradient id="paint22_linear" x1="308.625" y1="44.0458" x2="308.625" y2="73.4154" gradientUnits="userSpaceOnUse">
<stop stop-color="#0989B4" stop-opacity="0.01"/>
<stop offset="0.999399" stop-color="#53FFEE"/>
</linearGradient>
<linearGradient id="paint23_linear" x1="263.015" y1="44.012" x2="263.015" y2="73.4497" gradientUnits="userSpaceOnUse">
<stop stop-color="#0989B4" stop-opacity="0.01"/>
<stop offset="0.999399" stop-color="#53FFEE"/>
</linearGradient>
<linearGradient id="paint24_linear" x1="57.6158" y1="18.9658" x2="57.6158" y2="48.4036" gradientUnits="userSpaceOnUse">
<stop stop-color="#0989B4" stop-opacity="0.01"/>
<stop offset="0.999399" stop-color="#53FFEE"/>
</linearGradient>
<linearGradient id="paint25_linear" x1="11.9376" y1="18.9997" x2="11.9376" y2="48.3692" gradientUnits="userSpaceOnUse">
<stop stop-color="#0989B4" stop-opacity="0.01"/>
<stop offset="0.999399" stop-color="#53FFEE"/>
</linearGradient>
<linearGradient id="paint26_linear" x1="148.87" y1="18.9997" x2="148.87" y2="48.3692" gradientUnits="userSpaceOnUse">
<stop stop-color="#0989B4" stop-opacity="0.01"/>
<stop offset="0.999399" stop-color="#53FFEE"/>
</linearGradient>
<linearGradient id="paint27_linear" x1="103.26" y1="18.9659" x2="103.26" y2="48.4036" gradientUnits="userSpaceOnUse">
<stop stop-color="#0989B4" stop-opacity="0.01"/>
<stop offset="0.999399" stop-color="#53FFEE"/>
</linearGradient>
<linearGradient id="paint28_linear" x1="240.193" y1="18.9658" x2="240.193" y2="48.4036" gradientUnits="userSpaceOnUse">
<stop stop-color="#0989B4" stop-opacity="0.01"/>
<stop offset="0.999399" stop-color="#53FFEE"/>
</linearGradient>
<linearGradient id="paint29_linear" x1="194.514" y1="18.9997" x2="194.514" y2="48.3692" gradientUnits="userSpaceOnUse">
<stop stop-color="#0989B4" stop-opacity="0.01"/>
<stop offset="0.999399" stop-color="#53FFEE"/>
</linearGradient>
<linearGradient id="paint30_linear" x1="331.447" y1="18.9997" x2="331.447" y2="48.3692" gradientUnits="userSpaceOnUse">
<stop stop-color="#0989B4" stop-opacity="0.01"/>
<stop offset="0.999399" stop-color="#53FFEE"/>
</linearGradient>
<linearGradient id="paint31_linear" x1="285.837" y1="18.9659" x2="285.837" y2="48.4036" gradientUnits="userSpaceOnUse">
<stop stop-color="#0989B4" stop-opacity="0.01"/>
<stop offset="0.999399" stop-color="#53FFEE"/>
</linearGradient>
<linearGradient id="paint32_linear" x1="57.6158" y1="114.597" x2="57.6158" y2="144.034" gradientUnits="userSpaceOnUse">
<stop stop-color="#0989B4" stop-opacity="0.01"/>
<stop offset="0.999399" stop-color="#53FFEE"/>
</linearGradient>
<linearGradient id="paint33_linear" x1="11.9376" y1="114.63" x2="11.9376" y2="144" gradientUnits="userSpaceOnUse">
<stop stop-color="#0989B4" stop-opacity="0.01"/>
<stop offset="0.999399" stop-color="#53FFEE"/>
</linearGradient>
<linearGradient id="paint34_linear" x1="148.87" y1="114.63" x2="148.87" y2="144" gradientUnits="userSpaceOnUse">
<stop stop-color="#0989B4" stop-opacity="0.01"/>
<stop offset="0.999399" stop-color="#53FFEE"/>
</linearGradient>
<linearGradient id="paint35_linear" x1="103.26" y1="114.597" x2="103.26" y2="144.034" gradientUnits="userSpaceOnUse">
<stop stop-color="#0989B4" stop-opacity="0.01"/>
<stop offset="0.999399" stop-color="#53FFEE"/>
</linearGradient>
<linearGradient id="paint36_linear" x1="240.193" y1="114.597" x2="240.193" y2="144.034" gradientUnits="userSpaceOnUse">
<stop stop-color="#0989B4" stop-opacity="0.01"/>
<stop offset="0.999399" stop-color="#53FFEE"/>
</linearGradient>
<linearGradient id="paint37_linear" x1="194.514" y1="114.63" x2="194.514" y2="144" gradientUnits="userSpaceOnUse">
<stop stop-color="#0989B4" stop-opacity="0.01"/>
<stop offset="0.999399" stop-color="#53FFEE"/>
</linearGradient>
<linearGradient id="paint38_linear" x1="331.447" y1="114.63" x2="331.447" y2="144" gradientUnits="userSpaceOnUse">
<stop stop-color="#0989B4" stop-opacity="0.01"/>
<stop offset="0.999399" stop-color="#53FFEE"/>
</linearGradient>
<linearGradient id="paint39_linear" x1="285.837" y1="114.597" x2="285.837" y2="144.034" gradientUnits="userSpaceOnUse">
<stop stop-color="#0989B4" stop-opacity="0.01"/>
<stop offset="0.999399" stop-color="#53FFEE"/>
</linearGradient>
<linearGradient id="paint40_linear" x1="57.6158" y1="66.7812" x2="57.6158" y2="96.219" gradientUnits="userSpaceOnUse">
<stop stop-color="#0989B4" stop-opacity="0.01"/>
<stop offset="0.999399" stop-color="#53FFEE"/>
</linearGradient>
<linearGradient id="paint41_linear" x1="11.9376" y1="66.8151" x2="11.9376" y2="96.1846" gradientUnits="userSpaceOnUse">
<stop stop-color="#0989B4" stop-opacity="0.01"/>
<stop offset="0.999399" stop-color="#53FFEE"/>
</linearGradient>
<linearGradient id="paint42_linear" x1="148.87" y1="66.8151" x2="148.87" y2="96.1846" gradientUnits="userSpaceOnUse">
<stop stop-color="#0989B4" stop-opacity="0.01"/>
<stop offset="0.999399" stop-color="#53FFEE"/>
</linearGradient>
<linearGradient id="paint43_linear" x1="103.26" y1="66.7812" x2="103.26" y2="96.219" gradientUnits="userSpaceOnUse">
<stop stop-color="#0989B4" stop-opacity="0.01"/>
<stop offset="0.999399" stop-color="#53FFEE"/>
</linearGradient>
<linearGradient id="paint44_linear" x1="240.193" y1="66.7812" x2="240.193" y2="96.219" gradientUnits="userSpaceOnUse">
<stop stop-color="#0989B4" stop-opacity="0.01"/>
<stop offset="0.999399" stop-color="#53FFEE"/>
</linearGradient>
<linearGradient id="paint45_linear" x1="194.514" y1="66.8151" x2="194.514" y2="96.1846" gradientUnits="userSpaceOnUse">
<stop stop-color="#0989B4" stop-opacity="0.01"/>
<stop offset="0.999399" stop-color="#53FFEE"/>
</linearGradient>
<linearGradient id="paint46_linear" x1="331.447" y1="66.8151" x2="331.447" y2="96.1846" gradientUnits="userSpaceOnUse">
<stop stop-color="#0989B4" stop-opacity="0.01"/>
<stop offset="0.999399" stop-color="#53FFEE"/>
</linearGradient>
<linearGradient id="paint47_linear" x1="285.837" y1="66.7812" x2="285.837" y2="96.219" gradientUnits="userSpaceOnUse">
<stop stop-color="#0989B4" stop-opacity="0.01"/>
<stop offset="0.999399" stop-color="#53FFEE"/>
</linearGradient>
</defs>
</svg>
